<?xml version="1.0" encoding="UTF-8" standalone="no"?>
<svg xmlns="http://www.w3.org/2000/svg" version="1.1" width="160" height="160">
<path d="m 158.88804,1.111954 -157.773264,0 0,157.773266 157.773264,0 0,-157.773266 z" style="fill:#d92e10;"/>
<path d="m 157.77328,2.22673 -155.54655,0 0,155.54655 155.54655,0 0,-155.54655 z M 0,0 160,0 160,160 0,160 0,0 z" style="fill:#fff;"/>
<path d="m 78.19773,74.80063 -8.39045,0 c -0.18062,0 -0.33867,-0.0931 -0.4318,-0.23142 -1.0414,-1.800578 -3.34433,-4.713108 -7.715946,-4.713108 -5.720636,0 -9.256874,5.023548 -9.256874,10.236188 0,4.88526 3.301994,10.04991 9.21172,10.04991 4.052704,0 6.53908,-2.50612 7.78932,-4.83445 0.017,-0.031 0.0339,-0.0649 0.0508,-0.096 0.0931,-0.13546 0.25118,-0.22578 0.4318,-0.22578 l 8.40739,0 c 0.28222,0 0.51646,0.23142 0.51646,0.51929 0,0.0452 -0.008,0.0875 -0.0198,0.12982 -0.008,0.0254 -0.0142,0.048 -0.0226,0.0734 -1.65946,5.30294 -7.30954,12.15811 -17.108284,12.15811 -11.257826,0 -18.053728,-9.02545 -18.053728,-17.82231 0,-9.304848 7.3547,-17.912612 18.146862,-17.912612 7.76957,0 14.43,4.701814 16.91637,11.940802 0.006,0.017 0.0112,0.031 0.017,0.0452 0.017,0.0508 0.0282,0.10442 0.0282,0.16368 0,0.28505 -0.23424,0.51929 -0.51646,0.51929" style="fill:#fff;"/>
<path d="m 115.53737,74.80063 -8.39046,0 c -0.18062,0 -0.33866,-0.0931 -0.4318,-0.23142 -1.04139,-1.800578 -3.34432,-4.713108 -7.71594,-4.713108 -5.72063,0 -9.25687,5.023548 -9.25687,10.236188 0,4.88526 3.30199,10.04991 9.21172,10.04991 4.0527,0 6.53907,-2.50612 7.78932,-4.83445 0.017,-0.031 0.0367,-0.0649 0.0536,-0.096 0.0931,-0.13546 0.24835,-0.22578 0.42897,-0.22578 l 8.40739,0 c 0.28222,0 0.51647,0.23142 0.51647,0.51929 0,0.0452 -0.008,0.0875 -0.0198,0.12982 -0.006,0.0254 -0.0142,0.048 -0.0226,0.0734 -1.65947,5.30294 -7.30955,12.15811 -17.10829,12.15811 -11.25783,0 -18.0509,-9.02545 -18.0509,-17.82231 0,-9.304848 7.35187,-17.912612 18.14686,-17.912612 7.76674,0 14.42717,4.701814 16.91637,11.940802 0.003,0.017 0.008,0.031 0.0142,0.0452 0.017,0.0508 0.0282,0.10442 0.0282,0.16368 0,0.28505 -0.23424,0.51929 -0.51647,0.51929" style="fill:#fff;"/>
<path d="m 30.667066,84.89367 -0.0198,-0.0621 -3.166528,-10.62283 c -0.03668,-0.13828 -0.16086,-0.23989 -0.307622,-0.23989 -0.14394,0 -0.265288,0.0931 -0.299154,0.2286 l -3.189106,10.65105 -0.0142,0.0452 c -0.0028,0.0198 -0.0056,0.0367 -0.0056,0.0593 0,0.16934 0.13828,0.3048 0.307622,0.3048 l 6.392324,0 c 0.16934,0 0.30762,-0.13546 0.30762,-0.3048 0,-0.0198 -0.0028,-0.0395 -0.0056,-0.0593 m 2.545642,7.66232 c -0.07902,-0.18626 -0.262468,-0.31891 -0.479778,-0.31891 l -11.218316,0 c -0.220134,0 -0.403578,0.13264 -0.4826,0.31891 l -1.583264,4.34339 0,0 c -0.07902,0.18626 -0.265288,0.31609 -0.474132,0.31609 l -8.317076,0 c -0.290688,0 -0.52211,-0.23142 -0.52211,-0.51647 0,-0.0677 0.0142,-0.12982 0.03668,-0.18626 l 0.0084,-0.0254 13.388602,-33.361432 0.017,-0.0367 c 0.08184,-0.1778 0.259644,-0.3048 0.47131,-0.3048 l 6.237102,0 c 0.2032,0 0.378176,0.12136 0.462844,0.29351 l 0.0254,0.0677 13.239024,33.324752 0.02822,0.0706 c 0.017,0.0508 0.02822,0.1016 0.02822,0.15804 0,0.28504 -0.234244,0.51646 -0.516466,0.51646 l -8.407388,0 c -0.21731,0 -0.400754,-0.12982 -0.479776,-0.31326 l -0.0028,-0.0112 -1.459086,-4.33493 z" style="fill:#fff;"/>
<path d="m 136.4548,84.89367 -0.02,-0.0621 -3.16652,-10.62283 c -0.0367,-0.13828 -0.16086,-0.23989 -0.31045,-0.23989 -0.1411,0 -0.26246,0.0931 -0.29633,0.2286 l -3.18911,10.65105 -0.0112,0.0452 c -0.006,0.0198 -0.008,0.0367 -0.008,0.0593 0,0.16934 0.13828,0.3048 0.30763,0.3048 l 6.39514,0 c 0.1666,0 0.3048,-0.13546 0.3048,-0.3048 0,-0.0198 -0.002,-0.0395 -0.006,-0.0593 m 2.54564,7.66232 c -0.079,-0.18626 -0.26246,-0.31891 -0.47978,-0.31891 l -11.21832,0 c -0.21731,0 -0.40357,0.13264 -0.4826,0.31891 l -1.58326,4.34339 0,0 c -0.079,0.18626 -0.26529,0.31609 -0.47695,0.31609 l -8.31426,0 c -0.29069,0 -0.52211,-0.23142 -0.52211,-0.51647 0,-0.0677 0.0142,-0.12982 0.0367,-0.18626 l 0.008,-0.0254 13.3886,-33.361432 0.017,-0.0367 c 0.0818,-0.1778 0.26247,-0.3048 0.47131,-0.3048 l 6.2371,0 c 0.2032,0 0.37818,0.12136 0.46286,0.29351 l 0.0254,0.0677 13.23902,33.324752 0.0282,0.0706 c 0.016,0.0508 0.0282,0.1016 0.0282,0.15804 0,0.28504 -0.23424,0.51646 -0.51646,0.51646 l -8.4074,0 c -0.2173,0 -0.40074,-0.12982 -0.47978,-0.31326 l -0.002,-0.0112 -1.45908,-4.33493 z" style="fill:#fff;"/>
</svg>