<svg xmlns="http://www.w3.org/2000/svg" viewBox="0 0 16 16" fill="#ffffff" id="X-Logo--Streamline-Phosphor" height="16" width="16">
  <desc>
    X Logo Streamline Icon: https://streamlinehq.com
  </desc>
  <path d="m15.08285625 14.8270625 -5.1091125 -8.0293 5.04136875 -5.54575c0.33354375 -0.376 0.13496875 -0.97206875 -0.357425 -1.072925 -0.2230375 -0.04568125 -0.4537625 0.0281125 -0.60889375 0.19474375l-4.8022375 5.28213125L5.94195625 0.46279375c-0.1197625 -0.18850625 -0.32756875 -0.302725 -0.5509 -0.30279375H1.473525c-0.50261875 -0.00024375 -0.81701875 0.5437 -0.56591875 0.97910625 0.00481875 0.0083625 0.00983125 0.01661875 0.01501875 0.0247625l5.10910625 8.02848125 -5.0413625 5.54983125c-0.3424875 0.367875 -0.1583 0.96854375 0.33153125 1.08120625 0.23280625 0.05354375 0.4762625 -0.024325 0.6347875 -0.20303125l4.8022375 -5.28213125 3.3046 5.193175c0.120725 0.18695 0.32835625 0.29953125 0.5509 0.2987125h3.917525c0.50261875 -0.00015625 0.8165875 -0.54435625 0.56514375 -0.9795625 -0.00458125 -0.007925 -0.009325 -0.0157625 -0.0142375 -0.0234875Zm-4.11014375 -0.30279375L2.6626625 1.46584375H5.0295l8.31331875 13.058425Z" stroke-width="0.0625"></path>
</svg>